# xmcd
#
# Track frame offsets:
#	150
#	23521
#	54934
#	83263
#	128404
#	159541
#	201826
#
# Disc length: 3026 seconds
# Revision: 1
# Processed by: cddbd v1.5.2PL0 Copyright (c) Steve Scherf et al.
# Submitted via: dBpowerAMP V12.0
#
DISCID=410bd007
DTITLE=Dżem - 35 Urodziny - CD2
DYEAR=2015
DGENRE=Blues
TTITLE0=Zapal świeczke
TTITLE1=Za to że żyje
TTITLE2=Uwierz Mirando
TTITLE3=Do kołyski
TTITLE4=Bujam się
TTITLE5=Ostatnie widzenie
TTITLE6=Noc i rytm
EXTD=
EXTT0=
EXTT1=
EXTT2=
EXTT3=
EXTT4=
EXTT5=
EXTT6=
PLAYORDER=
